<?xml version='1.0' encoding='utf-8'?>
<svg xmlns="http://www.w3.org/2000/svg" width="420mm" height="297mm" version="1.1"
     style="shape-rendering:geometricPrecision; text-rendering:geometricPrecision; image-rendering:optimizeQuality; fill-rule:evenodd; clip-rule:evenodd"
     viewBox="0 0 42000 29700">
    <defs>
        <style type="text/css">.str7 {stroke:#434242;stroke-width:7.99} .str9 {stroke:#2B2A29;stroke-width:400} .str10
            {stroke:#434242;stroke-width:30} .str8 {stroke:#434242;stroke-width:20} .str0
            {stroke:#2B2A29;stroke-width:20} .str2 {stroke:#2B2A29;stroke-width:20} .str14
            {stroke:#FEFEFE;stroke-width:10} .str13 {stroke:#727271;stroke-width:10} .str12
            {stroke:#5B5B5B;stroke-width:10} .str5 {stroke:#434242;stroke-width:10} .str1
            {stroke:#2B2A29;stroke-width:10} .str11 {stroke:#2B2A29;stroke-width:10} .str3
            {stroke:#5B5B5B;stroke-width:20;stroke-linecap:round} .str4
            {stroke:#2B2A29;stroke-width:10;stroke-linecap:round} .str6
            {stroke:#2B2A29;stroke-width:20;stroke-linecap:square} .fil1 {fill:none} .fil3 {fill:#FEFEFE} .fil6
            {fill:#EBECEC} .fil5 {fill:#D9DADA} .fil7 {fill:#C5C6C6} .fil8 {fill:#B2B3B3} .fil14 {fill:#898989} .fil15
            {fill:#5B5B5B} .fil12 {fill:#434242} .fil4 {fill:#2B2A29} .fil0 {fill:#5B5A50} .fil11 {fill:#A2D9F7} .fil2
            {fill:#2B2018} .fil13 {fill:#008DD2} .fil10 {fill:url(#id0)} .fil9 {fill:url(#id1)}
        </style>
        <linearGradient id="id0" gradientUnits="userSpaceOnUse" x1="6379.82" y1="15243.6" x2="6215.4" y2="15236.1">
            <stop offset="0" style="stop-opacity:1; stop-color:#9C9E9F"/>
            <stop offset="1" style="stop-opacity:1; stop-color:#FEFEFE"/>
        </linearGradient>
        <linearGradient id="id1" gradientUnits="userSpaceOnUse" x1="6653.64" y1="15270.8" x2="6374.44" y2="15226.8">
            <stop offset="0" style="stop-opacity:1; stop-color:#636969"/>
            <stop offset="0.411765" style="stop-opacity:1; stop-color:#B0B3B3"/>
            <stop offset="1" style="stop-opacity:1; stop-color:#FEFEFE"/>
        </linearGradient>
    </defs>
    <g id="Vrstva_x0020_1">
        <metadata id="CorelCorpID_0Corel-Layer"/>
        <path class="fil0 str0" d="M37796 17758l267 5c122,78 93,351 -80,442l-285 -3c-162,-123 -102,-433 98,-444z"/>
        <path class="fil1 str0" d="M38063 17763c-95,85 -154,314 -80,442"/>
        <path class="fil2 str0"
              d="M5848 19225l3677 -4570 3979 20 2633 4073 10542 187 4522 -4667 4104 -69 886 4717c1387,74 1344,665 -901,698l-3373 1005c-666,-168 -1573,-477 -2268,-844l-14770 233c-228,-163 -731,-211 -1529,-185l-3628 213 476 593c-624,-48 -1244,-338 -1729,-520 -2079,35 -4406,-437 -2621,-884z"/>
        <path class="fil3 str0"
              d="M5003 14210c100,329 2395,646 3781,1149l454 150c-1238,1030 -1320,2377 -1287,3768 -1056,-73 -2233,-71 -2823,-310 -424,-171 -523,-449 -31,-712 89,262 188,417 674,396 -124,-370 -332,-727 -1035,-863 -267,-352 -1058,-1888 -488,-2895 147,-260 363,-484 755,-683z"/>
        <path class="fil4 str0"
              d="M4800 17790c436,131 795,273 971,861 -102,32 -600,40 -674,-396 13,-165 -119,-309 -297,-465z"/>
        <path class="fil3 str1"
              d="M5660 17117c229,-99 436,180 548,371 113,192 167,516 -75,589 -241,73 -426,-172 -492,-310 -65,-138 -210,-551 19,-650z"/>
        <path class="fil5 str0"
              d="M4337 14923c779,76 328,424 257,805 -70,378 -58,840 -384,665 -83,-389 -146,-1057 127,-1470z"/>
        <path class="fil4 str2"
              d="M4362 15079c161,1 236,25 394,174 -173,315 -193,772 -291,1084 -108,-28 -162,-89 -177,-165 -72,-364 -96,-981 74,-1093z"/>
        <line class="fil1 str3" x1="4423" y1="15081" x2="4351" y2="16281"/>
        <line class="fil1 str3" x1="4549" y1="15106" x2="4465" y2="16337"/>
        <line class="fil1 str3" x1="4309" y1="15139" x2="4277" y2="15975"/>
        <line class="fil1 str3" x1="4654" y1="15166" x2="4604" y2="15618"/>
        <path class="fil6 str0" d="M6088 14646l1990 492c-289,856 -1779,1184 -3045,682 156,-640 681,-936 1055,-1174z"/>
        <path class="fil3 str0"
              d="M6088 14646c4183,-1593 9165,-1169 13804,-1482 -301,152 -504,261 -796,493 -148,498 -375,2955 -285,4620 -1046,-2 -3066,-467 -4539,-1023 -571,-2234 -3128,-3232 -5034,-1745 -1115,-373 -2038,-637 -3150,-863z"/>
        <path class="fil3 str0"
              d="M5003 14210c3326,-1657 9585,-1878 11401,-1812 -509,178 2205,799 3488,766 -4605,300 -9864,-101 -13804,1482 -385,-102 -889,-219 -1085,-436z"/>
        <path class="fil3 str0"
              d="M14272 17254c1440,605 3981,1062 4539,1023 3674,-125 7919,-414 8454,-778 662,-451 754,-846 1057,-1505l2010 -240c-924,1085 -808,2397 -879,3344l-15006 136 -175 -1980z"/>
        <path class="fil3 str0"
              d="M19892 13164l8651 -44c338,829 109,2057 -221,2874 -186,464 -511,1200 -1098,1528 -812,454 -5484,613 -8413,755 -9,-1542 -11,-3098 285,-4620 262,-193 518,-348 796,-493z"/>
        <line class="fil1 str4" x1="16471" y1="15878" x2="14910" y2="17205"/>
        <line class="fil1 str4" x1="17455" y1="15070" x2="18957" y2="13798"/>
        <ellipse class="fil3 str1" transform="matrix(3.29493 0.0607446 -0.057173 3.1012 16992 15501.9)" rx="185"
                 ry="197"/>
        <path class="fil1 str0" d="M5771 18651c505,236 1117,418 1721,599"/>
        <path class="fil3 str0"
              d="M28543 13120l4375 -17 35 -71 -588 -17c12,-29 20,-42 37,-66 685,-106 1098,-853 361,-1013 2,-12 3,3 3,-11l857 158c277,206 154,667 80,960 1179,84 3082,291 3517,460l100 141c-96,19 -165,46 -234,98 84,446 153,718 354,1104l-130 5 -2784 412c-1030,-741 -3026,-811 -4194,491l-2010 240c254,-589 607,-1907 221,-2874z"/>
        <path class="fil3 str0"
              d="M33623 12083c1621,210 3328,375 3857,364 354,229 53,692 68,835 198,588 198,712 243,1265l-59 23c-25,-310 -112,-710 -206,-953l-206 27 -100 -141c-1155,-308 -2749,-397 -3517,-460 39,-286 253,-699 -80,-960z"/>
        <path class="fil3 str0"
              d="M34526 15263l2914 -417c318,314 286,-51 235,-212l118 -65c203,206 212,538 568,817 -43,828 -165,2021 -603,2476 -210,-33 -270,344 -108,443l-28 118 -1764 255c-68,-902 -51,-2527 -1332,-3415z"/>
        <line class="fil1 str0" x1="32953" y1="13032" x2="33703" y2="13043"/>
        <rect class="fil3 str1" transform="matrix(3.20466 0.0977881 -0.0862413 2.73055 26733.6 13989.3)" width="512"
              height="248" rx="124" ry="124"/>
        <line class="fil1 str1" x1="26735" y1="14250" x2="28357" y2="14308"/>
        <path class="fil3 str1" d="M26836 14254l1017 36c-4,92 2,277 -251,293l-547 -26c-161,-14 -216,-187 -219,-303z"/>
        <ellipse class="fil7 str1" transform="matrix(2.74657 0.0506352 -0.0563053 3.05413 28032.2 14543.6)" rx="36"
                 ry="32"/>
        <line class="fil1 str1" x1="28034" y1="14446" x2="28030" y2="14641"/>
        <path class="fil3 str0"
              d="M23270 10504c72,95 105,183 87,346 -1165,735 -2284,1527 -3366,2313l-682 -19 3961 -2640z"/>
        <path class="fil4 str5"
              d="M19991 13163l1483 -1044 857 -589 1026 -680c102,-196 -640,-1125 -1049,-1184 186,-86 321,-58 494,-42 253,-8 1045,802 974,1284 -544,310 -1024,699 -1536,1072l-545 1175 -1356 6 -348 2z"/>
        <rect class="fil4 str1" transform="matrix(3.25469 0.0600027 -0.0291582 1.58161 14431.9 12539.6)" width="75.52"
              height="39.14" rx="20" ry="20"/>
        <rect class="fil4 str1" transform="matrix(3.25469 0.0600027 -0.031841 1.72713 14287.9 12367.9)" width="75.52"
              height="39.14" rx="20" ry="20"/>
        <path class="fil4 str0"
              d="M34458 13191c44,94 177,102 263,37l-10 -216 149 -742 643 -2571 -41 3 -670 2553 -211 691 -123 245z"/>
        <polyline class="fil1 str5" points="22240,11980 22265,11748 20324,13119 "/>
        <path class="fil7 str0"
              d="M28519 9943c141,-50 280,-97 418,-64 510,158 509,1062 746,1522 -216,260 -316,154 -449,100l-527 -810 -188 -748z"/>
        <path class="fil4 str0"
              d="M29010 13119l2401 -10 1507 -6 35 -71 -1914 -31c-109,-632 -317,-870 -588,-1267 -42,118 -764,513 -919,-176l-298 -57 -224 1618z"/>
        <path class="fil8 str0"
              d="M29187 10151c141,-50 327,-115 464,-81 510,158 463,1079 700,1539 28,55 74,72 100,125 -254,283 -666,283 -853,59l-411 -1642z"/>
        <polyline class="fil1 str1" points="29560,10061 29657,10208 30217,11899 "/>
        <polyline class="fil1 str1" points="28845,9868 28919,9958 29420,11537 "/>
        <path class="fil4 str0"
              d="M28478 12276l681 20 -43 822 -1224 6c162,-265 375,-536 608,-743 20,-18 -37,-83 -22,-105z"/>
        <line class="fil1 str0" x1="28619" y1="12682" x2="28276" y2="13122"/>
        <line class="fil1 str0" x1="28448" y1="13121" x2="29044" y2="12874"/>
        <polygon class="fil4 str5" points="21967,12567 28383,12492 27919,13114 21695,13155 "/>
        <path class="fil4 str5" d="M28509 11975l-608 -18c-358,-996 -200,-1366 219,-1392 354,-21 645,522 389,1410z"/>
        <path class="fil4 str2"
              d="M27895 11956l682 20 -44 823 -1224 5c162,-264 375,-535 608,-743 20,-17 -37,-83 -22,-105z"/>
        <path class="fil1 str4" d="M6034 14626c-625,327 -1535,1216 -1423,1465 76,170 1554,237 3443,-4"/>
        <path class="fil1 str4" d="M7559 19253c-353,-4604 3079,-5408 5088,-4569 1072,448 1745,1247 1999,2583"/>
        <path class="fil1 str1" d="M36186 18630c45,-3382 -1892,-4465 -3951,-4269 -1642,156 -3220,1302 -3124,4740"/>
        <path class="fil0 str0" d="M37749 17861l267 4c122,79 93,352 -80,442l-286 -2c-161,-123 -102,-433 99,-444z"/>
        <path class="fil1 str0" d="M38016 17865c-96,85 -154,315 -80,442"/>
        <path class="fil7 str0"
              d="M37086 13742c147,-110 260,-113 440,-125 134,310 196,683 208,985l-59 32c40,294 59,443 -235,212 -180,-330 -296,-711 -354,-1104z"/>
        <path class="fil1 str1" d="M5084 15656c1301,62 1796,260 2422,-659"/>
        <path class="fil1 str4" d="M6160 15377c-235,130 -332,141 -743,224"/>
        <path class="fil9 str0"
              d="M6520 14908c62,1 110,155 106,343 -3,188 -56,340 -118,339 -62,-2 -110,-155 -106,-343 3,-189 56,-340 118,-339z"/>
        <path class="fil10 str0"
              d="M6304 14899c40,1 69,154 65,342 -3,188 -38,340 -78,340 -39,-1 -69,-154 -65,-342 3,-189 38,-341 78,-340z"/>
        <path class="fil11 str6"
              d="M22308 9666c302,64 677,483 962,838l-3961 2640c-930,-56 -1822,-273 -2501,-457 -37,-11 -78,-21 -110,-40 1795,-1125 3723,-2148 5610,-2981z"/>
        <g>
            <path class="fil12"
                  d="M17532 12144c549,174 1143,684 1885,603 255,-28 2410,-1531 3342,-2244 161,-123 -474,-575 -739,-699l287 -129c295,56 746,548 950,827l-3950 2634c-1022,-70 -1841,-278 -2595,-489l820 -503z"/>
            <path id="1" class="fil12"
                  d="M17532 12144c549,174 1143,684 1885,603 255,-28 2410,-1531 3342,-2244 161,-123 -474,-575 -739,-699l287 -129c295,56 746,548 950,827l-3950 2634c-1022,-70 -1841,-278 -2595,-489l820 -503zm521 284c-178,-89 -349,-175 -514,-230l-703 432c343,95 699,187 1083,266 420,85 872,154 1375,189l3892 -2595c-118,-155 -299,-360 -484,-521 -138,-120 -277,-215 -389,-242l-179 81c139,77 322,200 464,322 77,66 143,132 185,191 51,73 68,140 33,193 -7,11 -16,20 -27,29 -521,399 -1426,1045 -2167,1542 -589,396 -1078,698 -1200,712 -518,57 -962,-165 -1369,-369z"/>
        </g>
        <path class="fil1 str1"
              d="M6469 14726c1233,-699 4556,-1113 8267,-1171 1436,-22 2931,44 4360,102 3286,132 6250,407 7642,581"/>
        <path class="fil1 str1" d="M37220 13503l-253 99c-4282,-663 -6212,-504 -8261,665 -94,54 -113,33 -349,41"/>
        <path class="fil1 str1" d="M36967 13602c10,422 153,835 343,1249"/>
        <path class="fil1 str0" d="M37220 13503c129,-59 231,-127 328,-221"/>
        <polygon class="fil4 str0" points="17208,12177 17339,12132 17855,12682 17774,12746 "/>
        <path class="fil3 str0" d="M22431 12085c363,256 503,676 176,764 -1458,163 -1643,-736 -176,-764z"/>
        <path class="fil4 str7" d="M29159 12296l-681 -20c-400,-1116 -224,-1530 245,-1559 397,-24 723,585 436,1579z"/>
        <path class="fil8 str5" d="M29019 12588l-405 278c12,-681 77,-1110 273,-1099 162,9 151,230 132,821z"/>
        <polygon class="fil4 str5" points="29022,12016 30338,11922 30397,12155 29028,12292 "/>
        <rect class="fil4 str0" transform="matrix(8.01603 -2.67419 1.03015 3.08794 16410.8 12432)" width="121.93"
              height="30.9" rx="10" ry="10"/>
        <path class="fil4 str0" d="M16454 12402l537 63 -293 182c-146,-40 -447,-173 -326,-225l82 -20z"/>
        <path class="fil4 str7" d="M28669 12128l-34 270c-224,186 -422,435 -603,683l-235 0c254,-362 542,-661 872,-953z"/>
        <path class="fil4 str7" d="M27901 11957l19 83c-155,197 -470,645 -497,1045l-63 1c8,-336 256,-827 541,-1129z"/>
        <path class="fil4 str8"
              d="M30376 11622c811,58 1617,195 2390,303 528,64 592,775 -364,1024l-37 66 -1326 -14c-123,-705 -360,-918 -663,-1379z"/>
        <g>
            <ellipse class="fil4" cx="16992" cy="15502" rx="361" ry="359"/>
            <ellipse class="fil3" cx="16992" cy="15502" rx="355" ry="353"/>
            <ellipse class="fil4" cx="16992" cy="15502" rx="350" ry="348"/>
            <ellipse class="fil3" cx="16992" cy="15502" rx="218" ry="217"/>
            <path class="fil13" d="M16992 15502l207 -1c0,1 0,1 0,1 0,114 -93,206 -207,206 0,0 0,0 0,0l0 -206z"/>
            <path class="fil13" d="M16992 15502l-207 0c0,0 0,0 0,0 0,-114 93,-206 207,-206 0,0 0,0 0,0l0 206z"/>
            <polygon class="fil3"
                     points="17206,15247 17225,15265 17192,15308 17246,15284 17261,15302 17226,15350 17275,15328 17288,15349 17200,15389 17187,15367 17229,15313 17165,15341 17147,15324 "/>
            <path class="fil3"
                  d="M16706 15330l52 -64c16,-15 30,-3 31,-2 14,9 7,23 9,24 3,2 15,-14 35,3 7,5 13,21 3,34l-52 66 -78 -61z"/>
            <path class="fil4" d="M16763 15288c10,-12 26,2 18,13l-28 34 -17 -14 27 -33z"/>
            <path class="fil4" d="M16795 15311c10,-13 28,1 19,13l-28 36 -18 -15 27 -34z"/>
            <polygon class="fil3"
                     points="17052,15274 17027,15271 17024,15206 17001,15270 16983,15270 16960,15205 16957,15271 16933,15274 16936,15176 16968,15172 16992,15240 17016,15172 17048,15176 "/>
        </g>
        <g>
            <ellipse class="fil7 str9" transform="matrix(1.18691 0.0218817 -0.0219239 1.1892 11192.2 17891.1)" rx="2289"
                     ry="2284"/>
            <ellipse class="fil14 str1" transform="matrix(1.02409 0.0188798 -0.0189163 1.02606 11192.2 17891.1)"
                     rx="2289" ry="2284"/>
            <ellipse class="fil4 str1" transform="matrix(0.87422 0.0161169 -0.016148 0.875906 11192.2 17891.1)"
                     rx="2289" ry="2284"/>
            <ellipse class="fil12 str10" transform="matrix(2.47705 0.0456663 -0.0576659 3.12793 11234.1 17896)" rx="572"
                     ry="453"/>
            <polygon class="fil7 str11"
                     points="10610,17231 10811,17079 10916,15563 11257,15548 11581,15579 11643,17072 11856,17253 13319,16904 13431,17194 13507,17521 12110,18058 12018,18291 12822,19576 12574,19785 12302,19956 11337,18776 11090,18782 10106,19969 9820,19792 9575,19588 10412,18281 10317,18031 8881,17494 8966,17154 9090,16852 "/>
            <path class="fil5 str1"
                  d="M11454 18842c-161,-184 85,-342 186,-412 282,-197 343,-107 421,10l722 1166 -83 80 -107 84 -123 87 -126 76 -890 -1091z"/>
            <ellipse class="fil4 str1" transform="matrix(1.13365 0.0208997 -0.0228425 1.23903 10896 17418.9)" rx="136"
                     ry="125"/>
            <polygon class="fil15 str12"
                     points="10810,17417 10832,17378 10855,17338 10898,17339 10940,17340 10961,17380 10982,17420 10960,17460 10937,17500 10895,17499 10852,17498 10831,17458 "/>
            <ellipse class="fil4 str1" transform="matrix(1.13365 0.0208997 -0.0228425 1.23903 11570.2 17431.3)" rx="136"
                     ry="125"/>
            <polygon class="fil15 str12"
                     points="11484,17430 11507,17390 11529,17350 11572,17351 11615,17352 11635,17392 11656,17433 11634,17472 11612,17512 11569,17511 11526,17511 11505,17470 "/>
            <ellipse class="fil4 str1" transform="matrix(1.13365 0.0208997 -0.0228425 1.23903 11770.3 18065.4)" rx="136"
                     ry="125"/>
            <polygon class="fil15 str12"
                     points="11685,18064 11707,18024 11729,17985 11772,17985 11815,17986 11835,18027 11856,18067 11834,18107 11812,18146 11769,18145 11726,18145 11705,18104 "/>
            <ellipse class="fil4 str1" transform="matrix(1.13365 0.0208997 -0.0228425 1.23903 10681 18060.4)" rx="136"
                     ry="125"/>
            <ellipse class="fil4 str1" transform="matrix(1.13365 0.0208997 -0.0228425 1.23903 11225.9 18458.8)" rx="136"
                     ry="125"/>
            <polygon class="fil15 str12"
                     points="11140,18457 11162,18418 11185,18378 11227,18379 11270,18380 11291,18420 11312,18460 11290,18500 11267,18540 11224,18539 11182,18538 11161,18498 "/>
            <polygon class="fil15 str12"
                     points="10595,18059 10617,18019 10640,17980 10683,17980 10725,17981 10746,18022 10767,18062 10745,18102 10722,18141 10680,18140 10637,18140 10616,18099 "/>
            <circle class="fil4 str1" transform="matrix(1.13423 0.0209104 -0.0212477 1.15253 10683.8 17705)" r="35"/>
            <circle class="fil4 str1" transform="matrix(1.13423 0.0209104 -0.0212477 1.15253 11235.6 17319.3)" r="35"/>
            <circle class="fil4 str1" transform="matrix(1.13423 0.0209104 -0.0212477 1.15253 11772.9 17720.1)" r="35"/>
            <circle class="fil4 str1" transform="matrix(1.13423 0.0209104 -0.0212477 1.15253 10886.3 18349.3)" r="35"/>
            <circle class="fil4 str1" transform="matrix(1.13423 0.0209104 -0.0212477 1.15253 11562.1 18349.1)" r="35"/>
            <ellipse class="fil4 str1" transform="matrix(1.054 0.443488 -0.443488 1.054 13253.9 18564.4)" rx="56"
                     ry="77"/>
            <ellipse class="fil4 str1" transform="matrix(1.09129 0.341583 -0.341583 1.09129 13203.8 18546.8)" rx="73"
                     ry="34"/>
            <path class="fil5 str1"
                  d="M10982 18841c164,-181 -79,-343 -179,-415 -278,-202 -341,-113 -421,2l-768 1193 87 79 99 78 126 80 132 82 924 -1099z"/>
            <path class="fil5 str11"
                  d="M10867 16980c-30,242 262,234 386,236 343,5 343,-104 342,-245l-62 -1397 -107 -10 -137 -13 -148 2 -155 3 -119 1424z"/>
            <path class="fil5 str1"
                  d="M10243 17950c224,97 299,-186 336,-304 101,-328 -4,-359 -139,-397l-1372 -344 -44 108 -52 124 -37 143 -36 145 1344 525z"/>
            <path class="fil5 str1"
                  d="M11969 17280c-239,50 -137,324 -99,441 106,327 210,292 342,246l1279 -497 -18 -113 -34 -132 -47 -143 -55 -137 -1368 335z"/>
            <g id="_1982283175168">
                <ellipse class="fil4" cx="11192" cy="17891" rx="241" ry="240"/>
                <ellipse class="fil3" cx="11192" cy="17891" rx="237" ry="236"/>
                <ellipse class="fil4" cx="11192" cy="17891" rx="234" ry="232"/>
                <ellipse class="fil3" cx="11192" cy="17891" rx="146" ry="145"/>
                <path class="fil13" d="M11192 17891l139 0c0,0 0,0 0,0 0,76 -62,138 -139,138 0,0 0,0 0,0l0 -138z"/>
                <path class="fil13" d="M11192 17891l-138 0c0,0 0,0 0,0 0,-76 62,-138 138,-138 0,0 0,0 0,0l0 138z"/>
                <polygon class="fil3"
                         points="11335,17721 11348,17732 11326,17761 11362,17745 11372,17758 11349,17790 11382,17775 11390,17789 11332,17816 11323,17801 11351,17765 11308,17784 11296,17772 "/>
                <path class="fil3"
                      d="M11001 17776l35 -43c11,-10 20,-1 21,-1 9,6 4,15 6,16 1,1 9,-9 23,2 4,4 9,14 2,23l-35 44 -52 -41z"/>
                <path class="fil4" d="M11039 17748c7,-8 18,1 12,9l-19 23 -11 -10 18 -22z"/>
                <path class="fil4" d="M11061 17763c6,-8 18,1 12,9l-19 24 -11 -10 18 -23z"/>
                <polygon class="fil3"
                         points="11232,17739 11215,17736 11214,17693 11198,17736 11186,17736 11171,17693 11169,17736 11153,17739 11155,17673 11176,17670 11192,17716 11208,17670 11230,17673 "/>
            </g>
            <ellipse class="fil1 str12" transform="matrix(1.04873 0.0193342 -0.0254548 1.38073 11192.2 17891.1)"
                     rx="245" ry="186"/>
            <ellipse class="fil1 str13" transform="matrix(0.937365 0.0172811 -0.0221336 1.20058 11192.2 17891.1)"
                     rx="287" ry="224"/>
            <ellipse class="fil1 str14" transform="matrix(0.857589 0.0158103 -0.0202498 1.0984 11192.2 17891.1)"
                     rx="287" ry="224"/>
        </g>
        <g>
            <ellipse class="fil7 str9" transform="matrix(1.18691 0.0218817 -0.0219239 1.1892 32632.2 17801)" rx="2289"
                     ry="2284"/>
            <ellipse class="fil14 str1" transform="matrix(1.02409 0.0188798 -0.0189163 1.02606 32632.2 17801)" rx="2289"
                     ry="2284"/>
            <ellipse class="fil4 str1" transform="matrix(0.87422 0.0161169 -0.016148 0.875906 32632.2 17801)" rx="2289"
                     ry="2284"/>
            <ellipse class="fil12 str10" transform="matrix(2.47705 0.0456663 -0.0576659 3.12793 32674.1 17805.9)"
                     rx="572" ry="453"/>
            <polygon class="fil7 str11"
                     points="32050,17141 32251,16989 32356,15473 32697,15458 33021,15489 33083,16982 33296,17163 34759,16814 34871,17104 34947,17431 33550,17968 33458,18201 34262,19486 34014,19695 33742,19866 32777,18686 32530,18692 31546,19879 31260,19702 31015,19498 31852,18191 31757,17941 30321,17404 30406,17064 30530,16762 "/>
            <path class="fil5 str1"
                  d="M32894 18752c-161,-184 85,-342 186,-412 282,-197 343,-107 421,10l722 1166 -83 80 -107 84 -123 87 -126 76 -890 -1091z"/>
            <ellipse class="fil4 str1" transform="matrix(1.13365 0.0208997 -0.0228425 1.23903 32336 17328.8)" rx="136"
                     ry="125"/>
            <polygon class="fil15 str12"
                     points="32250,17327 32272,17288 32295,17248 32338,17249 32380,17250 32401,17290 32422,17330 32400,17370 32377,17410 32335,17409 32292,17408 32271,17368 "/>
            <ellipse class="fil4 str1" transform="matrix(1.13365 0.0208997 -0.0228425 1.23903 33010.2 17341.2)" rx="136"
                     ry="125"/>
            <polygon class="fil15 str12"
                     points="32924,17340 32947,17300 32969,17260 33012,17261 33055,17262 33075,17302 33096,17343 33074,17382 33052,17422 33009,17421 32966,17420 32945,17380 "/>
            <ellipse class="fil4 str1" transform="matrix(1.13365 0.0208997 -0.0228425 1.23903 33210.3 17975.3)" rx="136"
                     ry="125"/>
            <polygon class="fil15 str12"
                     points="33125,17974 33147,17934 33169,17894 33212,17895 33255,17896 33275,17936 33296,17977 33274,18017 33252,18056 33209,18055 33166,18055 33145,18014 "/>
            <ellipse class="fil4 str1" transform="matrix(1.13365 0.0208997 -0.0228425 1.23903 32121 17970.4)" rx="136"
                     ry="125"/>
            <ellipse class="fil4 str1" transform="matrix(1.13365 0.0208997 -0.0228425 1.23903 32666 18368.7)" rx="136"
                     ry="125"/>
            <polygon class="fil15 str12"
                     points="32580,18367 32602,18328 32625,18288 32667,18289 32710,18290 32731,18330 32752,18370 32730,18410 32707,18450 32664,18449 32622,18448 32601,18408 "/>
            <polygon class="fil15 str12"
                     points="32035,17969 32057,17929 32080,17890 32123,17890 32165,17891 32186,17932 32207,17972 32185,18012 32162,18051 32120,18050 32077,18050 32056,18009 "/>
            <circle class="fil4 str1" transform="matrix(1.13423 0.0209104 -0.0212477 1.15253 32123.9 17614.9)" r="35"/>
            <circle class="fil4 str1" transform="matrix(1.13423 0.0209104 -0.0212477 1.15253 32675.6 17229.2)" r="35"/>
            <circle class="fil4 str1" transform="matrix(1.13423 0.0209104 -0.0212477 1.15253 33212.9 17630)" r="35"/>
            <circle class="fil4 str1" transform="matrix(1.13423 0.0209104 -0.0212477 1.15253 32326.3 18259.2)" r="35"/>
            <circle class="fil4 str1" transform="matrix(1.13423 0.0209104 -0.0212477 1.15253 33002.1 18259)" r="35"/>
            <ellipse class="fil4 str1" transform="matrix(1.054 0.443488 -0.443488 1.054 34693.9 18474.4)" rx="56"
                     ry="77"/>
            <ellipse class="fil4 str1" transform="matrix(1.09129 0.341583 -0.341583 1.09129 34643.8 18456.8)" rx="73"
                     ry="34"/>
            <path class="fil5 str1"
                  d="M32422 18751c164,-181 -79,-343 -179,-415 -278,-202 -341,-113 -421,2l-768 1193 87 79 99 78 126 80 132 81 924 -1098z"/>
            <path class="fil5 str11"
                  d="M32307 16890c-30,242 263,234 386,236 343,5 343,-104 342,-245l-62 -1397 -107 -10 -137 -13 -148 2 -155 3 -119 1424z"/>
            <path class="fil5 str1"
                  d="M31683 17860c224,97 299,-186 336,-304 101,-328 -4,-359 -139,-398l-1372 -343 -44 108 -52 124 -37 143 -36 145 1344 525z"/>
            <path class="fil5 str1"
                  d="M33409 17190c-238,50 -137,324 -99,441 106,327 210,292 342,246l1279 -497 -18 -114 -34 -131 -47 -143 -55 -138 -1368 336z"/>
            <g id="_1982283127072">
                <ellipse class="fil4" cx="32632" cy="17801" rx="241" ry="240"/>
                <ellipse class="fil3" cx="32632" cy="17801" rx="237" ry="236"/>
                <ellipse class="fil4" cx="32632" cy="17801" rx="234" ry="232"/>
                <ellipse class="fil3" cx="32632" cy="17801" rx="146" ry="145"/>
                <path class="fil13" d="M32632 17801l139 0c0,0 0,0 0,0 0,76 -62,138 -139,138 0,0 0,0 0,0l0 -138z"/>
                <path class="fil13" d="M32632 17801l-138 0c0,0 0,0 0,0 0,-76 62,-138 138,-138 0,0 0,0 0,0l0 138z"/>
                <polygon class="fil3"
                         points="32775,17630 32788,17642 32766,17671 32802,17655 32812,17668 32789,17700 32822,17685 32830,17699 32772,17726 32763,17711 32791,17675 32748,17694 32736,17682 "/>
                <path class="fil3"
                      d="M32441 17686l35 -43c11,-10 20,-2 21,-1 9,6 4,15 6,16 1,1 9,-9 23,2 4,4 9,14 2,23l-35 44 -52 -41z"/>
                <path class="fil4" d="M32479 17658c7,-8 18,1 12,9l-19 23 -11 -10 18 -22z"/>
                <path class="fil4" d="M32501 17673c6,-9 18,1 12,9l-19 24 -11 -10 18 -23z"/>
                <polygon class="fil3"
                         points="32672,17649 32655,17646 32654,17603 32638,17646 32626,17646 32611,17602 32609,17646 32593,17649 32595,17583 32616,17580 32632,17626 32648,17580 32670,17583 "/>
            </g>
            <ellipse class="fil1 str12" transform="matrix(1.04873 0.0193342 -0.0254548 1.38073 32632.2 17801)" rx="245"
                     ry="186"/>
            <ellipse class="fil1 str13" transform="matrix(0.937365 0.0172811 -0.0221336 1.20058 32632.2 17801)" rx="287"
                     ry="224"/>
            <ellipse class="fil1 str14" transform="matrix(0.857589 0.0158103 -0.0202498 1.0984 32632.2 17801)" rx="287"
                     ry="224"/>
        </g>
    </g>
</svg>