<?xml version="1.0" encoding="UTF-8"?>
<svg enable-background="new 0 0 425.199 172.219" viewBox="0 0 425.199 172.219" xmlns="http://www.w3.org/2000/svg">
    <path d="m47.765,115.986-1.879-9.629-1.175-3.289-3.053-1.879c0,0-3.992-.703-4.933-.471s-4.228,2.113-4.228,2.113c-.938.473-4.229,21.605-4.229,21.605l2.817,10.334c0,0 2.818,4.696 3.054,6.104 .234,1.408 7.279.233 7.279.233l4.933-7.045 3.054-5.871-1.64-12.205zm-7.957,9.429c-1.803,0-3.264-2.656-3.264-5.935s1.461-5.936 3.264-5.936 3.263,2.656 3.263,5.936-1.462,5.935-3.263,5.935z"
          fill="#1a171b"/>
    <path d="m219.436,134.068c0,0-.233-11.979-.233-13.62 0-1.646-2.584-6.105-2.584-6.105l-3.992-3.289c0,0-3.992-2.348-5.167-3.286-1.175-.939-2.349-.47-5.871-.234-3.521.234-6.105,3.521-6.105,3.521s-2.817,7.517-3.991,9.865c-1.175,2.349-.235,16.203 0,16.908 .234.705 2.817,9.393 5.167,13.62s8.454,3.992 11.037,5.166c2.583,1.175 9.395-9.629 10.568-10.803 1.174-1.176 1.645-7.045 1.645-7.045l-.474-4.698zm-14.374,2.62c-3.604,0-6.526-2.922-6.526-6.526s2.922-6.525 6.526-6.525 6.526,2.923 6.526,6.525-2.922,6.526-6.526,6.526z"
          fill="#1a171b"/>
    <path d="m274.135,64.16-.431-.635c-1.828-.697-5.869-1.708-10.031.677-.151.457-.305.91-.459,1.365l.244-.003 1.195-1.253c3.227-1.064 6.188-.163 9.483.098l-.001-.249zm4.144-14.602-19.219-.681c-5.888,1.596-25.597-1.493-29.16,1.204l.004.246c10.2,1.563 23.119-.595 35.269.671 3.69.385 10.636,1.433 13.37-.213l-.004-.246c-.087-.328-.175-.653-.26-.981zm7.903,38.314c-2.504,2.979-4.113,3.41-7.69,5.543l.004.244c3.957.552 7.59-1.75 7.686-5.787zm-2.569,6.69-.004-.244c-8.707,2.41-11.075,1.662-17.069-3.18-1.649-1.33-3.525-2.525-3.972-5.114 2.063.604 3.218,2.589 4.684,3.872-1.441-5.191-5.648-8.418-6.066-14.441-1.658-.595-2.758-1.543-3.692-2.897-2.073,1.965.299,8.715 1.144,10.576 2.6,5.749 17.024,22.697 24.975,11.428zm106.897-29.402c-.49,1.6.276,3.993 1.357,5.878l.268-.754 .061-.02c-.336-3.315.387-10.324 13.867-5.598 .893,1.468 1.981,3.086 2.936,4.637 .703.741 1.303,1.541 1.5,2.656 1.248,2.554 1.396,4.442-1.575,4.321-4.198-.17-9.421,1.281-11.739,2.004-.043.271-.084.545-.128.816l-.244.003c-.036-.22-.071-.442-.104-.664l-.729.238-.297-.194 .407,1.125c2.714.447 3.271-.527 5.575-1.074 1.019-.242 8.646,2.222 9.527,2.807l.062,3.695c.721-.506 1.44-1.011 2.165-1.514-.117-1.741-.07-3.09.662-3.954l.246-.006c.084.166.164.327.251.492 .489,2.224.338,4.468-.422,6.263 .979.917-.089,2.719-.089,2.719s-3.863,3.67-5.604,3.928l.004.246-.487.011c-4.534,1.665-14.18-7.094-14.763-10.856l.972-.015c1.23.804 2.459,1.605 3.688,2.405-.271-.894-.209-.721-.749-1.22-1.146-2.875-3.475-3.985-4.018-7.82l-3.656-.683 .021,1.233c2.957,7.365 11.102,22.681 21.678,17.644l-.252-.488c-.773-.189-1.02-.219-1.469-.715 3.127-.512 5.479-2.682 6.782-5.646 1.946-10.343-6.521-20.499-6.521-20.499l.064-.106c-1.812-1.422-3.854-2.55-6.176-3.713-2.012-.809-5.488-1.442-7.677-1.787l-.206.061c-9.715-1.875-29.838-5.282-53.654-6.568 5.49.899 38.693,4.216 51.76,7.286-1.56.783-2.744,1.942-3.294,3.426zm-124.403,75.268 .25.492c4.021,1.258 9,3.076 14.373,1.74l-.491-.238c-2.535-2.709-7.828-.824-11.703-2.279l-2.429.285zm-79.006-136.485c.75,7.735-.622,17.586 3.295,23.85l.242-.003c2.255-1.104 4.504-2.208 6.757-3.312l.745.975c-.056,1.884 2.234,4.372 3.026,6.851l-9.479.152c0,0-.749,11.66 3.786,14.228-13.106,1.125-27.683,2.482-32.562,3.334l-.031-.009c-2.982.209-4.912-.064-6.158-.451-.047-.019-.091-.033-.135-.053-.69-.31-1.379-.719-2.019-1.27l.01.017-.149-.121c.08.094.172.188.268.283 .11.132.306.321.63.528 1.23.888 3.306,1.627 7.005,1.444 8.845-.207 36.514-2.812 46.658-3.038 .659-.015 1.269-.031 1.852-.05 6.391-.02 13.664-.114 17.205-.165 .453.108.992.083 1.588-.024l.591-.009-.033-.105c1.515-.356 3.276-1.038 4.75-1.181 7.056.134 14.108.268 21.164.405 2.508-.208 5.017-.409 7.524-.615 1.663.56.9,1.732 3.181,1.18 2.951-.71 6.424.793 8.74-.629 .079-.248.155-.497.234-.743-.052-.191-.102-.384-.151-.573l-8.281.132-17.184-28.904c.373.167 1.549.725 3.354,1.87l1.286.712 .218.288c5.275,3.655 14.098,11.282 23.329,25.858l-.689.013 .061.079c-.234.743-.465,1.486-.695,2.229l.736.483c5.963-1.708 12.163,2.365 17.776,1.688l.084-.178c-2.156-.569-6.785-2.809-13.964-11.381-2.924-3.488-5.887-6.948-8.631-10.117l-4.408-4.51c-1.618-1.981-3.434-4.223-5.354-6.417l-.022.001c0,0-6.104-6.105-18.317-11.116-12.214-4.853-53.701-4.071-53.701-4.071-.018-.009-.031-.027-.048-.041-16.262.591-33.92,2.415-42.167,7.234l.021.039c5.705-1.965 31.145-8.238 38.062-4.787zm51.256,40.379c2.981-1.816 6.468-2.677 9.929-2.162 1.865.279 3.547.93 5,1.866l-14.929.296zm-34.177-23.503 2.19-.206 1.376,1.517 8.608-.136 1.076-4.087c2.192-.44 18.648-3.651 27.521-2.556l.003-.003 16.498,28.517-1.779.035c-.042.035-.094.066-.14.099-2.495-2.864-5.999-4.891-10.215-5.521-6.373-.951-12.783,1.493-17.278,5.968l-14.647.292-1.906-3.051-2.724-1.327 .652-1.38-6.654-14.951-2.896-1.666 .315-1.544zm142.101,69.547 .004.245c.332.488.662.976.996,1.466 2.086.543 4.979,3.631 6.838,1.858l-1-1.707c-1.604-.43-3.594-1.088-4.65-2.146l-2.188.284zm-65.719-4.132 .977-.015c.98-1.761 1.382-4.827 2.815-6.205l.495.484 1.241,1.706c-.272-7.992-4.438-13.77-10.707-15.846l.014.739c.33.406.66.811.991,1.215 4.469-.079 5.807,6.647 5.781,11.982-3.257-.039-5.997-.231-9.247-.591-.719.585-1.438,1.172-2.16,1.758 2.064,2.141 6.013,1.277 9.023,1.829 .262.982.518,1.964.777,2.944zm130.686,52.873c-3.902,2.025-8.921,2.979-14.034,4.168l-.236.496 .021,1.23c4.869-.166 10.202-2.771 14.764-4.424l-.021-1.23-.494-.24zm-348.314-84.819c.267-.002.526-.002.812-.011l5.708-.068c1.587-.075 3.16-.156 4.645-.176l2.533.086 7.834-.108 .025.051 38.531-.625c.028.027.061.053.089.081h2.768l-.174-.049 3.582.049 1.248-9.62c.09-.046.141-.091.141-.135 0-.258.063-1.21.098-1.701l.035-.017c-.189-5.286 2.603-27.853 4.381-30.377l.498.732c.821,2.453-.668,10.628-2.042,18.05l-1.56,11.878c0,0-.184.872-.057,1.061l-1.099,9.777 17.73-.235-.434-1.059c-1.906-7.774-3.812-15.546-5.72-23.319-1.696-6.297-.714-14.274-3.712-19.16l-5.354-.407c-17.733-.017-30.16,5.224-43.125,9.234l-.232,1.974c-.018,4.978-.837,10.456-1.814,15.487l-2.013,17.169h-1.276l3.903-33.575c-.253-.033-.516-.033-.798.009-2.116,1.088-4.128,2.24-6.038,3.438-1.021.782-1.93,1.501-2.582,1.906-.907.567-2.078,1.317-3.406,2.211-10.433,7.854-16.972,16.479-19.817,20.698-.674,1.401-1.177,3.256-.17,4.669 1.602,1.39 4.061,1.926 6.862,2.082zm73.424-27.958c.516-2.106.659-7.777 1.1-9.526l1.703-.025c.263,2.954 3.548,9.698 1.884,11.551l-4.865-.169 .178-1.831zm-39.032-5.996c16.086-7.7 34.392-3.499 34.392-3.499l-1.069,12.469-.77-.073-.005.017-.074-.024-14.498-1.347c-3.005,2.229-4.727,13.423-4.715,14.191-1.003.53-14.824-.534-15.976-1.156 .862-1.683 2.495-18.392 2.715-20.578zm-5.924,5.16c-.002-.024-.006-.048-.007-.07l.021-.015c.499-3.238.865-5.421.865-5.421s.227-.048.484-.007c.343,9.474-.825,18.369-1.927,24.379-.204,2.237-.789,4.257-1.332,6.301-.227.91-.362,1.409-.362,1.409l-.49-.236c-.581-3.706 1.5-18.251 2.748-26.34zm-24.756,14.967c1.485-1.431 8.379-6.464 13.644-10.251 2.094-1.708 4.188-3.291 6.248-4.464-.162,1.738-1.64,15.964-1.64,15.964s-16.584,1.24-18.547-.859l-.004-.246c.097-.041.198-.098.299-.144zm-61.692,69.372c-.179.035-.359.069-.54.103 .427,1.682 2.137,5.137 8.838,7.246l.771-.64c-4.906-.67-6.105-4.071-9.069-6.709zm81.542-40.719 1.248,1.95 .485-.007c.775-1.114 1.292-1.569 1.401-3.473l-.25-.488c-.57-.071-1.138-.145-1.707-.218l-.472.993c-3.167-.703-5.802-.622-7.817-2.339-1.631.108-2.938.734-3.617,1.782-.995,2.18.896,4.965 1.566,6.873l2.675-.042c-.172-2.15-.101-3.693.891-5.187l5.597.156zm-8.502.38-.972.263c.297-1.035.121-.776.954-1.246l.487.239 .012.737-.481.007zm62.886-67.015c.53-.005 1.056-.019 1.595-.02 0,0-.569-.006-1.595.02zm-102.929,57.568 1.38-.022c.132-.18.265-.354.396-.534 2.006-1.234 4.341-4.297 6.895-6.845-1.346.569-3.169,2.055-4.801,3.546-1.548.985-3.114,2.108-3.87,3.855zm-7.24,6.128c-2.662,2.035-5.479,3.132-5.479,3.132s10.333-2.662 8.455-7.045-7.201-9.238-6.73-11.116c.193-.779.286-1.289.724-1.82 3.441-3.067 19.683-3.844 22.024-4.15-1.875,0-19.194,1.104-19.194,1.104l-.335.141c-2.901.478-6.851,1.74-5.097,5.039 2.656,5.007 8.292,12.68 5.632,14.715zm187.513,60.227h.098l-.002-.047-.096.047zm-77.344-123.923c-20.468.229-35.48,4.801-45.029,8.99l.002-.011c-.49.2-.979.407-1.466.618v.05c-.353.163-.687.321-1.022.484-.011-.026-.02-.05-.032-.072-.194.086-.39.174-.583.266l-.079.114h.048c-5.429,2.651-8.506,4.897-9.208,5.398 23.484-14.11 50.612-15.674 57.369-15.837zm278.013,97.328-.472.992-.009-.49c-.547-1.283-.421-2.209-1.505-2.934l-18.687,2.268 .004.246c.912,2.457 4.293,6.307 3.072,9.807l-.475.748c-19.518.968-39.037,1.935-58.555,2.9l-22.116.844c-1.823-.649-2.025-5.252-3.023-6.852l-5.438-5.576c-12.887-.045-25.776-.088-38.661-.127-6.748-.945-18.157-2.18-24.564-.35-1.079,3.467-2.159,6.932-3.237,10.398l-14.113-.517c-7.174-16.428-11.698-29.164-32.119-32.013-6.528-.91-12.537,1.651-15.976,4.689-5.219,4.61-6.576,10.668-8.328,17.68h-.002c0,0-.146.42-.322,1.799-.114.892-.367,3.179-.536,4.699 .062.111.1.207.09.275-.142.938-.118,2.189-.118,2.189l-1.181,10.106c-.053.742-.204,3.265-.204,3.265l.026,2.635-.007.002c.004,3.742.007,7.486.009,11.232l-.482.254-103.001-9.206c-3.65-2.238-9.244-6.894-9.407-12.729-.063-.043-.131-.09-.167-.125-.34-.33-.418-.928-.402-1.5l-.113-.418-2.95-11.098 .021-.168c-.066-.289-.115-.516-.135-.645l-.041-.047 .027-.021c-2.301-3.847-5.704-14.453-7.708-17.022-6.782-8.681-21.934-7.153-27.453,1.67-2.059,3.289-1.644,9.054-3.938,12.381-2.126-1.217-5.397-1.348-8.297-1.837-.729-4.152-.092-8.486-1.891-11.798-.808.097-1.616.19-2.427.284-.304,1.322-.604,2.639-.908,3.957l-.739-.727 .121,7.635 .241-.004c.764-.428.293-.514.979.232-.153.939-.153.994.269,1.721 3.228.584 6.433.998 10.189,1.043l.003-.004c0,0 .258-.008.626.006 .29.002.574.006.87,0 .021.035.044.064.065.099 1.354.229 2.833.95 1.104,3.129l-.077,4.385-.084-.073 .087.084 .051,3.202c.981.537 1.966.791 2.676,1.593 .03-.021.049-.041.049-.041l.938.473c0,0-2.035,37.887 13.465,42.74l.229.059c9.226,1.453 27.641,1.334 31.957-1.742 3.501-2.492 5.961-7.553 7.587-11.748-.025-.176-.029-.344.01-.498 .716-2.834 2.172-6.709 2.172-6.709l17.535,1.918c1.051-.088 2.061-.08 2.821.049l.003.262 64.034,6.998 1.487.076c-.013.029-.023.058-.038.082l16.361,1.789 .466-.311c6.418,24.107 26.979,26.691 26.979,26.691l2.701.16c.817-.029 1.659-.058 2.532-.074 33.594-.705 38.991-22.351 38.991-22.351l.543.445c4.748.258 49.771,2.623 72.483,2.137 .017.015.027.031.039.047 .027.064.063.123.091.188l6.915-.758c0,0 6.734,15.5 29.748,12.213 20.363-2.908 25.895-15.127 27.547-18.662-14.39.805-28.781,1.605-43.171,2.406l-28.458-.531-14.35-.02c-11.03-.646-22.063-1.296-33.096-1.938-10.504-1.512-25.332.541-30.021-6.914-1.65-2.629-1.883-6-2.82-9.32-.5-1.76-1.626-4.26-1.853-6.453l-.054-.025-1.351-6.276 .155-.041c-.225-1.127-.28-2.198.168-3.174 10.562-.461 24.539.795 35.296,2.396l40.609.344 33.793-.536 31.104-1.233 11.185-.178c7.608-.531 15.223-1.064 22.831-1.598 4.016-.693 8.109-.105 11.158-1.65 .237-1.61 2.423-7.672.568-10.86zm-380.08,46.504c-7.702.121-13.915-11.178-14.146-25.729-.23-14.555 5.62-26.045 13.319-26.166s13.915,11.18 14.146,25.729-5.618,26.044-13.319,26.166zm166.011,15.397c-10.266.162-18.836-13.299-19.102-30.013-.042-2.635.126-5.196.479-7.646 .334-3.822 1.424-7.613 3.134-10.963 3.297-7.203 8.548-11.898 14.524-11.994 3.878-.061 7.516,1.82 10.555,5.094 5.001,5.383 8.379,14.521 8.544,24.92 .267,16.71-7.87,30.437-18.134,30.602zm18.783-102.612c6.576.47 38.75,2.348 38.75,2.348s-15.5-2.818-38.75-2.348zm118.596,6.575c0,0 21.843,13.855 31.233,22.31-1.64-3.288-14.323-12.681-31.233-22.31z"
          fill="#1a171b"/>
    <path d="m248.541,101.299c6.405-1.832 17.813-.596 24.563.348l38.662.127 5.438,5.578c.998,1.601 1.201,6.201 3.025,6.851l22.115-.845 58.556-2.899c.155-.248.315-.494.474-.746 1.222-3.5-2.16-7.351-3.072-9.807l-.003-.246 18.687-2.269c0,0-.475-3.979-1.382-9.014-1.276,2.129-3.185,3.67-5.585,4.221-.146.066-.289.142-.432.201 .396.406.66.459 1.387.637l.25.488c-6.604,3.146-12.259-1.646-16.295-7.481-1.195-1.574-2.164-3.157-2.857-4.445-.263-.488-.479-1.019-.661-1.576-.751-1.512-1.378-2.934-1.861-4.141l-.021-1.233 1.238.231c.049-1.685.309-3.415.744-5.057-.834-1.719-1.346-3.675-.925-5.047 .552-1.484 1.735-2.644 3.295-3.427-13.065-3.069-46.271-6.387-51.761-7.286 .957.051 1.908.108 2.854.165-23.239-2.512-45.975-4.711-49.357-5.328-5.613.677-11.812-3.396-17.775-1.688l-.737-.483 .494-1.583c-.576.018-1.177.035-1.791.051l-.181.571c-2.316,1.422-5.791-.081-8.739.629-2.148.52-1.599-.492-2.918-1.077-.237-.013-.439-.028-.591-.044-.049-.005-.115-.013-.179-.018l-7.021.574-21.163-.405c-1.475.143-3.236.826-4.75,1.181l.032.105-.592.009c-.595.106-1.134.132-1.587.024-3.541.052-10.814.145-17.205.165-.583.019-1.191.035-1.852.05-10.146.226-37.812,2.831-46.659,3.038-3.698.184-5.773-.556-7.005-1.444-.083-.053-.136-.101-.203-.15-.029-.024-.062-.044-.093-.07-.146-.117-.266-.226-.334-.308-.096-.095-.188-.189-.269-.283l.149.121-.009-.017s-14.604-34.38-5.543-39.521l-.015-.024c8.247-4.82 25.905-6.644 42.167-7.234 .018.013.03.031.048.04 0,0 41.487-.782 53.702,4.071 5.229,2.146 9.329,4.491 12.319,6.473l-.991-.978c-12.361-12.041-51.192-13.153-113.776-8.602-24.422,1.776-41.424,6.766-53.665,12.918l-.242.123-.689.356c-1.467.776-2.925,1.594-4.368,2.462l.299-.213c-15.491,9.137-22.181,20.015-27.64,26.774-6.979-.148-12.39.242-16.58.837 4.507-.272 9.188-.54 10.112-.54-2.342.306-18.583,1.083-22.024,4.15-.438.53-.527,1.041-.724,1.82-.47,1.878 4.854,6.731 6.73,11.116 1.493,3.482-4.72,5.877-7.337,6.713-3.182,1.888-7.604,4.2-12.922,7.372-3.771,2.249-6.278,5.603-7.938,9.186l1.021-.119c1.798,3.312 1.161,7.646 1.891,11.798 2.9.488 6.172.621 8.296,1.84 2.293-3.328 1.879-9.096 3.938-12.383 5.521-8.823 20.67-10.351 27.453-1.668 2.003,2.567 5.406,13.176 7.708,17.021l-.028.022 .041.045c.026.174.104.521.211.965l10.127.562-.003-.035 .235.014 3.828,11.164-.877-.024 .012-.076-10.468-.651 .114.418c-.018.571.062,1.168.401,1.498 .037.037.104.082.167.127 .163,5.834 5.758,10.485 9.408,12.727l103.001,9.207 .481-.252c-.002-3.748-.005-7.492-.009-11.234l.007-.002-.026-2.633c0,0 .151-2.521.203-3.264l-5.835-.514v-10.049l7.014.453c0,0-.021-1.252.119-2.192 .009-.068-.027-.162-.091-.275 .17-1.521.423-3.807.536-4.699 .177-1.377.323-1.797.323-1.797h.002c1.752-7.012 3.109-13.07 8.327-17.681 3.438-3.038 9.447-5.6 15.976-4.689 20.423,2.849 24.945,15.586 32.119,32.013l14.114.518c1.081-3.471 2.162-6.937 3.243-10.402zm100-11.199c1.061,1.058 3.05,1.715 4.653,2.146l1,1.707c-1.857,1.771-4.752-1.318-6.838-1.861l-.997-1.465-.003-.244c.729-.097 1.456-.19 2.185-.283zm-308.739-30.594c-.132.18-.264.354-.396.534l-1.38.022c.757-1.747 2.323-2.87 3.87-3.854 1.631-1.492 3.455-2.978 4.8-3.547-2.553,2.547-4.888,5.61-6.894,6.845zm40.283,14.65-2.675.044c-.672-1.908-2.562-4.693-1.567-6.873 .682-1.048 1.987-1.673 3.618-1.782 2.017,1.717 4.65,1.637 7.817,2.339l.472-.993 1.707.218 .25.488c-.109,1.904-.626,2.359-1.401,3.473l-.486.007-1.248-1.95-5.596-.158c-.992,1.493-1.063,3.036-.891,5.187zm-17.076-19.853c-2.801-.156-5.26-.691-6.861-2.082-1.007-1.413-.504-3.268.169-4.669 2.849-4.218 9.387-12.843 19.817-20.698 1.329-.894 2.499-1.644 3.407-2.211 .65-.405 1.561-1.125 2.582-1.906 1.91-1.198 3.921-2.35 6.038-3.438 0,0 1.261-.747 2.228-1.024l.004-.04c12.964-4.011 25.392-9.253 43.125-9.236l5.354.409c2.998,4.886 2.016,12.863 3.712,19.16 1.905,7.773 3.812,15.545 5.72,23.319l.433,1.059-17.73.235-1.645.352-2.353-.027-.002-.006-1.229-.016 .175.049h-2.768c-.028-.027-.062-.053-.089-.081l-38.532.625-.024-.051c-1.936.027-4.61.066-7.834.108l-2.534-.086c-1.481.019-3.056.1-4.644.176-1.821.022-3.729.046-5.708.068-.284.009-.545.009-.811.011zm222.348,22.715c.463,1.604.746,3.339.811,5.201l-.479-.658c.13,2.548.161,4.895.014,6.958 .183-.199.365-.406.558-.637-.025,1.104-.323,2.072-.812,2.895-.56,3.427-1.854,5.748-4.418,6.421-8.153,5.241-19.981-8.896-22.317-14.05-.844-1.86-3.217-8.61-1.145-10.575 .067.095.144.176.211.268 .242-3.495 1.559-6.702 5.936-8.511l.037-.112c4.164-2.385 8.203-1.375 10.032-.677l.367.542c4.76,1.587 10.26,5.387 11.205,12.935zm-55.378-26.677-.004-.246c3.564-2.697 23.272.393 29.162-1.204 6.403.229 12.812.455 19.219.681 .084.329.172.653.258.982l.005.246c-2.735,1.646-9.679.598-13.369.213-12.152-1.266-25.07.891-35.271-.672z"
          fill="#fff"/>
    <path d="m11.245,103.04 .032.002c.522.094.987.144 1.392.138 1.161.116 2.666.266 3.688.329 2.669-2.739 1.012-3.584-.48-3.836-.021-.032-.044-.062-.065-.098-.295.006-.58.002-.87,0-.369-.017-.626-.009-.626-.009l-.003.007c-3.758-.048-6.963-.462-10.189-1.046-.422-.729-.422-.778-.269-1.721-.686-.744-.215-.658-.979-.229l-.176.002c-.177,1.772-.212,3.319-.183,4.481 2.647.24 6.17,1.504 8.646,1.961 .026.006.06.017.082.019z"
          fill="#fff"/>
    <path d="m291.2 46.855c-2.017-1.542-4.383-3.708-6.962-6.264 2.776 3.004 5.091 4.971 6.962 6.264z" fill="#fff"/>
    <path d="m408.537,93.165-.255.063 .256-.002-.001-.061z" fill="#fff"/>
    <path d="m19.679,111.95-.05.041c-.71-.804-1.692-1.058-2.675-1.595l-.052-3.203c-.762-.981-8.895-2.032-13.863-2.59 .638,2.402 1.614,4.383 2.786,6.013 .846.866 1.573,1.776 2.344,2.622 1.508,1.365 3.141,2.354 4.702,3.066 .385.103.787.189 1.229.252l-.22.18c3.39,1.337 6.197,1.429 6.197,1.429l.464.114c-.047-3.551.077-5.86.077-5.86l-.939-.469z"
          fill="#fff"/>
    <path d="m392.32,67.766c.51-1.275 1.127-2.438 1.831-3.402-1.12.903-1.633,2.167-1.831,3.402z" fill="#fff"/>
    <path d="m418.411,110.674c-3.05,1.547-7.145.957-11.16,1.652-7.607.531-15.222,1.062-22.83,1.598l-11.185.178-31.104,1.232-33.791.537c-13.535-.115-27.077-.229-40.609-.344-10.758-1.603-24.733-2.854-35.297-2.396-.582,1.263-.316,2.687.065,4.188 2.021,1.152 4.733.865 7.562,1.356 10.065,1.755 21.056.622 32.373,2.196 12.328,1.713 25.896.822 39.4.605 10.352-.166 21.197.362 30.617-1.228l39.376-.871c9.805-.401 19.604-.805 29.405-1.205 2.915-.52 8.667-2.534 10.423-2.137l.482-.008c.006,1.686-.253,1.954-.683,2.967-1.607.742-3.51.117-6.067.59-12.021,2.213-25.727-.146-39.122,1.604l-36.695,1.324-28.188,1.187c-6.057,1.063-14.234,1.157-20.177.321-7.375.035-14.753.067-22.125.104-11.533-1.695-24.392-2.605-35.078-3.879l-.241.002c-1.021,2.49.903,6.391 1.602,8.85 .939,3.316 1.172,6.689 2.822,9.316 4.688,7.457 19.517,5.404 30.021,6.916l33.096,1.939c4.782.004 9.565.012 14.349.018l28.459.531 43.171-2.406-.194.418c3.782-.479 7.171-.955 9.979-1.396l-.011-.653 .236-.498c5.114-1.188 10.132-2.14 14.034-4.166l.492.237 .002.181c12.541-7.666 12.326-19.172 13.129-22.787 .938-4.22-6.538-6.073-6.538-6.073zm-151.978,30.26-.249-.492 2.428-.282c3.874,1.455 9.168-.431 11.703,2.276l.492.24c-5.375,1.334-10.352-.483-14.374-1.742z"
          fill="#fff"/>
    <path d="m28.135,67.931c.825-.468 1.746-1.049 2.651-1.741 .345-.265.545-.626.636-1.061-.583.872-1.71,1.78-3.287,2.802z"
          fill="#fff"/>
    <path d="m78.052,68.525c-.833.47-.657.211-.954,1.246l.971-.263 .481-.007-.011-.737-.487-.239z" fill="#fff"/>
    <path d="m16.353,103.605c-1.021-.063-2.525-.213-3.688-.33-.402.004-.868-.043-1.392-.137l-.032-.004-.081-.018c-3.393-.627-8.758-2.773-11.134-1.721-.065.987-.128,1.975-.194,2.961 3.024.305 15.968,1.662 17.048,2.914l.077-4.328-.021-.004c-.166.214-.353.43-.583.667z"
          fill="#d20a11"/>
    <path d="m80.517,104.441-3.947-.248-4.99-.315-.502-.028v-.013l-4.797-.256 .003.035-10.126-.562c0,0 2.58,10.262 2.854,10.95l10.467.652-.012.075 .896.025 6.326.338 86.354,4.647 9.717.854c0,0 1.231-9.498 1.18-10.106l-7.252-.472 .02-.133-8.398-.531-7.895-.498-2.171-.139 .001.001-3.424-.216-.111-.008-6.454-.407-1.683-.106h.001l-5.739-.361-3.741-.237v.001l-19.727-1.246-1.896-.119-3.145-.199-.29-.019-20.388-1.286"
          fill="#d20a11"/>
    <path d="m421.757,116.027c-1.756-.397-7.51,1.619-10.426,2.138l-29.402,1.207-39.377.871c-9.42,1.588-20.269,1.062-30.617,1.225-13.508.218-27.074,1.109-39.4-.604-11.318-1.574-22.308-.443-32.374-2.195-2.824-.494-5.54-.205-7.562-1.355-.074-.291-.142-.578-.201-.862l-.194.01c0,0 1.096,5.479 1.252,5.949 .01.026.062.069.147.125-.074-.826-.021-1.609.259-2.285l.242-.002c10.688,1.271 23.545,2.183 35.077,3.879l22.125-.106c5.94.838 14.121.744 20.177-.32l28.188-1.188 36.694-1.321c13.397-1.752 27.103.606 39.122-1.605 2.561-.475 4.46.152 6.068-.592 .428-1.01.688-1.279.682-2.967l-.48-.002z"
          fill="#d20a11"/>
    <path d="m220.506,126.45c.017-.615-.009-1.238-.053-1.871-.615-3.896-1.703-7.463-3.147-10.522-4.339-8.091-12.48-13.658-20.697-7.188-14.656,11.553-8.103,50.973 11.04,52.063 9.071-3.643 11.341-12.006 13.179-22.543 .155-1.682.229-3.408.199-5.176-.022-1.607-.134-3.184-.312-4.717l-.209-.046zm-21.054-15.459c1.565-.939 5.479-3.916 4.696.625s-.626,6.889-1.251,7.045c-.627.155-1.098-.625-1.098-.625l-3.287-4.386c.001,0-.625-1.72.94-2.659zm-2.974,22.073c-1.253.938-2.662,2.816-3.442,2.504s-2.662-8.77.47-10.646l4.384,4.854c-.003.001-.159,2.349-1.412,3.288zm7.671,20.511c-.781.155-6.731-3.445-6.262-4.697s3.913-5.637 5.167-5.793c-.001-.001 1.878,10.333 1.095,10.49zm.231-16.768-1.22-.225c-4.251-2.818-2.52-8.768.06-11.584l1.7-.027c.741.729 1.481,1.455 2.225,2.182 1.484,4.062.198,8.031-2.765,9.654zm9.632-21.905c0,0 4.385,5.949 3.602,7.201s-4.07,4.229-5.479,2.191c-1.41-2.032 1.095-7.982 1.877-9.392zm.941,33.819c-1.098.156-4.073-8.143-2.977-9.707s5.32.939 5.948.939c.003.001-1.719,7.514-2.971,8.768zm3.364-22.239 .096-.049 .002.049h-.098z"
          fill="#d20a11"/>
    <path d="m48.734,115.26-.004-.254c0,0-.022-.072-.067-.184-.451-2.578-3.121-15.674-11.059-17.352-.77-.32-1.538-.396-2.293-.144l-.07.028-.985.558c-2.884,2.192-5.241,6.719-6.506,12.405 0,.142-.014.291-.016.435-1.396,6.188-2.45,16.34 2.253,25.472 1.63,3.59 3.755,6.237 6.113,7.391l.229-.092c1.876.58 3.829-.15 5.264-.986 .476-.178.935-.42 1.369-.779 5.73-4.746 6.946-16.314 5.825-26.377l-.053-.121zm-16.336,12.392c-.487-.78-.879-8.407-.292-9.582 0,0 2.834,2.152 3.031,3.031 .193.879.587,2.736.587,2.736s-2.836,3.621-3.326,3.815zm9.513,9.403c-.354.117.234.822-.822,1.057-1.057.236-3.757-.352-3.991-1.76s-.117-8.807.47-9.981c0,0 .705-1.644 1.409.471s3.286,10.096 2.934,10.213zm2.818-10.215c-1.645.705-2.701-1.057-3.17-1.762-.102-.15-.204-.379-.295-.645-.227.295-.469.582-.75.854-.383.016-.673.025-.91.021-.039.006-.073.016-.111.016-1.752.027-3.214-2.557-3.265-5.77-.037-2.271.643-4.24 1.662-5.216-.992-1.026-4.043-6.649-3.729-7.698 0,0 5.283-8.925 4.345-.822 0,4.705.066,7.129-.104,8.135 .286-.164.59-.256.906-.264 .815-.015 1.566.549 2.146,1.471 .15-.779 2.023-10.357 2.925-9.457 .938.938 2.113,7.162 1.058,8.104-.726.644-2.548,2.221-3.478,2.361 .367.932.592,2.062.612,3.289 .001.064 0,.131-.002.191 .075.561.07,1.117-.002,1.666 1.39.014 4.16.123 4.16.826-.001.943-.354,3.995-1.998,4.7z"
          fill="#d20a11"/>
</svg>
